<svg width="1600" height="1200" viewBox="0 0 1600 1200" fill="none" xmlns="http://www.w3.org/2000/svg">
  <defs>
    <linearGradient id="bg" x1="0" y1="0" x2="1600" y2="1200" gradientUnits="userSpaceOnUse">
      <stop stop-color="#020617" />
      <stop offset="0.52" stop-color="#0F172A" />
      <stop offset="1" stop-color="#111827" />
    </linearGradient>
    <linearGradient id="cyan" x1="320" y1="180" x2="1180" y2="980" gradientUnits="userSpaceOnUse">
      <stop stop-color="#22D3EE" stop-opacity="0.45" />
      <stop offset="1" stop-color="#3B82F6" stop-opacity="0.05" />
    </linearGradient>
    <radialGradient id="glow" cx="0" cy="0" r="1" gradientUnits="userSpaceOnUse" gradientTransform="translate(1060 340) rotate(90) scale(380 380)">
      <stop stop-color="#38BDF8" stop-opacity="0.28" />
      <stop offset="1" stop-color="#38BDF8" stop-opacity="0" />
    </radialGradient>
  </defs>
  <rect width="1600" height="1200" rx="56" fill="url(#bg)" />
  <circle cx="340" cy="250" r="260" fill="#22D3EE" fill-opacity="0.12" />
  <circle cx="1200" cy="280" r="320" fill="#3B82F6" fill-opacity="0.12" />
  <circle cx="1120" cy="360" r="220" fill="url(#glow)" />
  <rect x="180" y="180" width="1240" height="840" rx="42" fill="white" fill-opacity="0.03" stroke="white" stroke-opacity="0.08" />
  <rect x="260" y="248" width="540" height="570" rx="34" fill="#020617" fill-opacity="0.75" stroke="white" stroke-opacity="0.08" />
  <rect x="850" y="248" width="440" height="240" rx="34" fill="#0B1220" fill-opacity="0.8" stroke="white" stroke-opacity="0.08" />
  <rect x="850" y="530" width="440" height="288" rx="34" fill="#0B1220" fill-opacity="0.8" stroke="white" stroke-opacity="0.08" />
  <rect x="300" y="302" width="180" height="18" rx="9" fill="#E2E8F0" fill-opacity="0.78" />
  <rect x="300" y="340" width="280" height="12" rx="6" fill="#94A3B8" fill-opacity="0.45" />
  <rect x="300" y="374" width="360" height="220" rx="24" fill="url(#cyan)" />
  <rect x="300" y="626" width="110" height="16" rx="8" fill="#22D3EE" fill-opacity="0.8" />
  <rect x="300" y="664" width="400" height="12" rx="6" fill="#94A3B8" fill-opacity="0.35" />
  <rect x="300" y="696" width="320" height="12" rx="6" fill="#94A3B8" fill-opacity="0.35" />
  <rect x="300" y="728" width="360" height="12" rx="6" fill="#94A3B8" fill-opacity="0.35" />
  <rect x="300" y="762" width="260" height="12" rx="6" fill="#94A3B8" fill-opacity="0.35" />
  <rect x="898" y="304" width="118" height="14" rx="7" fill="#22D3EE" fill-opacity="0.8" />
  <rect x="898" y="342" width="276" height="10" rx="5" fill="#94A3B8" fill-opacity="0.38" />
  <rect x="898" y="368" width="180" height="10" rx="5" fill="#94A3B8" fill-opacity="0.25" />
  <rect x="898" y="566" width="126" height="14" rx="7" fill="#60A5FA" fill-opacity="0.8" />
  <rect x="898" y="604" width="248" height="10" rx="5" fill="#94A3B8" fill-opacity="0.38" />
  <rect x="898" y="630" width="290" height="10" rx="5" fill="#94A3B8" fill-opacity="0.25" />
  <rect x="898" y="656" width="220" height="10" rx="5" fill="#94A3B8" fill-opacity="0.25" />
  <circle cx="1200" cy="350" r="46" fill="#22D3EE" fill-opacity="0.15" />
  <circle cx="1212" cy="350" r="18" fill="#22D3EE" fill-opacity="0.55" />
  <circle cx="1228" cy="350" r="6" fill="white" fill-opacity="0.9" />
  <path d="M340 474L386 430L430 466L496 408L560 446L628 394" stroke="#7DD3FC" stroke-width="16" stroke-linecap="round" stroke-linejoin="round" stroke-opacity="0.4" />
  <path d="M340 518H612" stroke="#38BDF8" stroke-width="14" stroke-linecap="round" stroke-opacity="0.22" />
  <path d="M340 556H516" stroke="#38BDF8" stroke-width="14" stroke-linecap="round" stroke-opacity="0.22" />
  <rect x="1046" y="592" width="132" height="132" rx="32" fill="white" fill-opacity="0.04" stroke="white" stroke-opacity="0.08" />
  <rect x="1080" y="626" width="64" height="16" rx="8" fill="#E2E8F0" fill-opacity="0.8" />
  <rect x="1074" y="658" width="76" height="12" rx="6" fill="#94A3B8" fill-opacity="0.45" />
  <rect x="1084" y="682" width="56" height="12" rx="6" fill="#22D3EE" fill-opacity="0.75" />
</svg>